<svg width="18" height="19" viewBox="0 0 18 19" fill="none" xmlns="http://www.w3.org/2000/svg">
<path fill-rule="evenodd" clip-rule="evenodd" d="M9.00898 0.0398355C13.5376 0.0534174 17.3509 3.42984 17.9126 7.92352C18.4743 12.4172 15.6095 16.6284 11.2235 17.7562C7.77045 18.6442 4.22135 17.4033 2.05001 14.7821L2.04992 17.0001C2.04992 17.5129 1.66388 17.9356 1.16654 17.9934L1.04992 18.0001C0.537082 18.0001 0.11441 17.6141 0.0566452 17.1167L0.0499175 17.0001V12.0001C0.0499175 11.4873 0.435958 11.0646 0.933296 11.0068L1.04992 11.0001H6.04992C6.6022 11.0001 7.04992 11.4478 7.04992 12.0001C7.04992 12.5129 6.66388 12.9356 6.16654 12.9934L6.04992 13.0001L3.20949 13.001C4.84102 15.3812 7.82673 16.5647 10.7254 15.8193C14.1367 14.942 16.3649 11.6667 15.928 8.17159C15.4911 4.6765 12.5253 2.05039 9.003 2.03983C5.48072 2.02933 2.49921 4.63766 2.04144 8.13007C1.96966 8.67767 1.46755 9.0634 0.919951 8.99162C0.372351 8.91984 -0.0133794 8.41773 0.0583991 7.87013C0.646972 3.37989 4.48033 0.0263353 9.00898 0.0398355Z" fill="white"/>
</svg>
