<svg width="17" height="21" viewBox="0 0 17 21" fill="none" xmlns="http://www.w3.org/2000/svg">
<path fill-rule="evenodd" clip-rule="evenodd" d="M11.4983 0.132934C11.0195 -0.142283 10.4082 0.022774 10.133 0.501599C9.85781 0.980425 10.0229 1.5917 10.5017 1.86691C12.8153 3.19675 14.1741 5.72415 14.0072 8.38753C13.8403 11.0509 12.1767 13.3889 9.71518 14.4196C7.25362 15.4502 4.42049 14.9949 2.40578 13.245C1.98882 12.8828 1.35721 12.9272 0.995047 13.3442C0.63288 13.7611 0.677297 14.3927 1.09425 14.7549C2.50083 15.9766 4.21782 16.7073 6.00002 16.9076V18.9999H3.00002L2.88339 19.0067C2.38606 19.0644 2.00002 19.4871 2.00002 19.9999C2.00002 20.5522 2.44773 20.9999 3.00002 20.9999H7.00002H11L11.1166 20.9932C11.614 20.9354 12 20.5128 12 19.9999C12 19.4476 11.5523 18.9999 11 18.9999H8.00002V16.9092C8.84335 16.8157 9.68099 16.6021 10.4876 16.2644C13.6509 14.9399 15.7888 11.9353 16.0033 8.5126C16.2178 5.08988 14.4716 1.84191 11.4983 0.132934ZM7.00002 2.99992C4.23859 2.99992 2.00002 5.2385 2.00002 7.99992C2.00002 10.7613 4.23859 12.9999 7.00002 12.9999C9.76144 12.9999 12 10.7613 12 7.99992C12 5.2385 9.76144 2.99992 7.00002 2.99992ZM7.00002 4.99992C8.65687 4.99992 10 6.34307 10 7.99992C10 9.65678 8.65687 10.9999 7.00002 10.9999C5.34316 10.9999 4.00002 9.65678 4.00002 7.99992C4.00002 6.34307 5.34316 4.99992 7.00002 4.99992Z" fill="white"/>
</svg>
