<svg width="20" height="20" viewBox="0 0 20 20" fill="none" xmlns="http://www.w3.org/2000/svg">
<path fill-rule="evenodd" clip-rule="evenodd" d="M14.1624 4.85311C14.0864 3.54077 12.9981 2.5 11.6667 2.5H5L4.85311 2.50424C3.54077 2.58028 2.5 3.6686 2.5 5V11.6667L2.50424 11.8136C2.58028 13.1259 3.6686 14.1667 5 14.1667H5.83333V15C5.83333 16.3807 6.95262 17.5 8.33333 17.5H15C16.3807 17.5 17.5 16.3807 17.5 15V8.33333C17.5 6.95262 16.3807 5.83333 15 5.83333H14.1667V5L14.1624 4.85311ZM12.5 5.83333V5C12.5 4.57264 12.1783 4.22041 11.7639 4.17227L11.6667 4.16667H5C4.57264 4.16667 4.22041 4.48837 4.17227 4.90282L4.16667 5V11.6667C4.16667 12.094 4.48837 12.4463 4.90282 12.4944L5 12.5H5.83333V8.33333C5.83333 6.95262 6.95262 5.83333 8.33333 5.83333H12.5ZM7.5 13.3333V15C7.5 15.4602 7.8731 15.8333 8.33333 15.8333H15C15.4602 15.8333 15.8333 15.4602 15.8333 15V8.33333C15.8333 7.8731 15.4602 7.5 15 7.5H13.3333H8.33333C7.8731 7.5 7.5 7.8731 7.5 8.33333V13.3333Z" fill="white"/>
</svg>
