<svg xmlns="http://www.w3.org/2000/svg" xmlns:xlink="http://www.w3.org/1999/xlink" width="196.723" height="29.171" viewBox="0 0 196.723 29.171"><defs><clipPath id="a"><rect width="196.723" height="29.171" fill="none"/></clipPath></defs><g clip-path="url(#a)"><path d="M1451.68,84.3a8.062,8.062,0,0,0-7.738,5.866,7.8,7.8,0,0,0-.342,2.09V95.9a7.916,7.916,0,0,0,.325,2.04,7.994,7.994,0,0,0,15.437,0,7.75,7.75,0,0,0,.28-2.04V92.256a7.758,7.758,0,0,0-.286-2.09,8,8,0,0,0-7.682-5.866m3.031,11.6a2.919,2.919,0,0,1-.723,1.922,3.054,3.054,0,0,1-2.308,1.093,3.227,3.227,0,0,1-2.387-1.093,2.985,2.985,0,0,1-.79-1.922V92.419a3.074,3.074,0,0,1,.964-2.135,3.132,3.132,0,0,1,2.18-.885,3.087,3.087,0,0,1,2.129.885,2.949,2.949,0,0,1,.924,2.135c0,.65.011,2.835.011,3.48" transform="translate(-1362.715 -79.577)" fill="#fff"/><path d="M2780.963,84.3a8.055,8.055,0,0,0-7.732,5.866,7.8,7.8,0,0,0-.331,2.09V95.9a7.674,7.674,0,0,0,.32,2.04,7.991,7.991,0,0,0,15.431,0,7.757,7.757,0,0,0,.275-2.04V92.256a7.763,7.763,0,0,0-.286-2.09,8,8,0,0,0-7.682-5.866m3.031,11.6a2.918,2.918,0,0,1-.723,1.922,3.055,3.055,0,0,1-2.309,1.093,3.21,3.21,0,0,1-2.381-1.093,2.978,2.978,0,0,1-.784-1.922V92.419a3.046,3.046,0,0,1,.958-2.135,3.127,3.127,0,0,1,2.18-.885,3.088,3.088,0,0,1,2.129.885,2.949,2.949,0,0,1,.925,2.135c0,.65.011,2.835.011,3.48" transform="translate(-2617.533 -79.577)" fill="#fff"/><path d="M1143.152,92.2h-4.684v8.69l-4.443-7.749a2,2,0,0,0-1.552-.941H1127.8v18.63h2.886a1.764,1.764,0,0,0,1.748-1.871v-8.567l6.063,10.438h2.908a1.754,1.754,0,0,0,1.754-1.832Z" transform="translate(-1064.609 -87.034)" fill="#fff"/><path d="M2549.934,106.2v-14H2545.3v18.63h8.892a1.783,1.783,0,0,0,1.726-1.922V106.2Z" transform="translate(-2402.685 -87.034)" fill="#fff"/><path d="M2234.787,92.2H2225.8v18.63h2.886a1.764,1.764,0,0,0,1.748-1.871v-3.592h4.354a6.584,6.584,0,0,0,0-13.167m.011,8.433h-4.365v-3.7h4.342a1.849,1.849,0,0,1,.022,3.7" transform="translate(-2101.087 -87.034)" fill="#fff"/><path d="M1747.472,110.83a1.9,1.9,0,0,0,1.911-1.39c.062-.157,1.373-4.583,2.628-8.853l2.5,8.388.572,1.855h2.415a1.849,1.849,0,0,0,1.664-1.126,3.033,3.033,0,0,0,.185-.448c.1-.314,5.048-17.056,5.048-17.056h-4.964l-2.465,8.444c-1.02-3.4-2-6.679-2.112-7.06a1.809,1.809,0,0,0-1.681-1.384h-3.664l-2.454,8.4c-1.025-3.379-2.023-6.634-2.129-7.021a1.826,1.826,0,0,0-1.81-1.378H1739.6l5.564,18.625Z" transform="translate(-1642.129 -87.034)" fill="#fff"/><path d="M3076.271,110.83a1.9,1.9,0,0,0,1.911-1.39c.062-.157,1.373-4.583,2.628-8.853l2.5,8.388.571,1.855h2.415a1.849,1.849,0,0,0,1.664-1.126,3.036,3.036,0,0,0,.185-.448c.1-.314,5.049-17.056,5.049-17.056h-4.964l-2.465,8.444c-1.02-3.4-2-6.679-2.112-7.06a1.809,1.809,0,0,0-1.681-1.384h-3.664l-2.454,8.4c-1.025-3.379-2.023-6.634-2.129-7.021a1.826,1.826,0,0,0-1.81-1.378H3068.4l5.564,18.625Z" transform="translate(-2896.474 -87.034)" fill="#fff"/><path d="M814.209,94.591a5.844,5.844,0,0,0-2.342-1.838,22.39,22.39,0,0,0-3.558-1.216,24.844,24.844,0,0,1-2.633-.857c-.583-.241-1.065-.4-1.065-.863a.759.759,0,0,1,.381-.768,3.731,3.731,0,0,1,1.933-.409,3.414,3.414,0,0,1,1.855.459,1.653,1.653,0,0,1,.6.577h5.138V89.4a4.9,4.9,0,0,0-1.02-2.661,6.632,6.632,0,0,0-2.628-2.051,9.23,9.23,0,0,0-3.945-.784,9.617,9.617,0,0,0-3.8.684,6.258,6.258,0,0,0-2.673,2.034,5.031,5.031,0,0,0-.964,3.009,5.092,5.092,0,0,0,.784,2.874,5.642,5.642,0,0,0,2.213,1.894,16.9,16.9,0,0,0,3.339,1.216c1.294.364,2.269.667,2.9.908a2.856,2.856,0,0,1,1.037.588c.14.14.14.179.14.431a.957.957,0,0,1-.471.9,5.7,5.7,0,0,1-4.6.017,1.821,1.821,0,0,1-.706-.773h-5.127a.626.626,0,0,0-.006.123v.039a4.91,4.91,0,0,0,1.1,2.869,6.74,6.74,0,0,0,2.858,2.034,10.664,10.664,0,0,0,4.1.717,9.8,9.8,0,0,0,5.648-1.49,5.268,5.268,0,0,0,2.348-4.5,4.852,4.852,0,0,0-.835-2.886" transform="translate(-754.217 -79.199)" fill="#fff"/><path d="M32.437,13.182,25.641,1.41A3.063,3.063,0,0,0,23.2.015H18.133a.487.487,0,0,0-.14,0H9.6a3.046,3.046,0,0,0-2.437,1.4L.365,13.182a3.076,3.076,0,0,0,0,2.813l6.8,11.778A3.059,3.059,0,0,0,9.6,29.179H23.2a3.059,3.059,0,0,0,2.437-1.406l6.8-11.778a3.076,3.076,0,0,0,0-2.813M24.795,1.9l2.482,4.3-4.348,7.441L20.083,8.767a.487.487,0,0,0-.42-.241H14.014L18.34.99H23.2a2.1,2.1,0,0,1,1.591.908M16.71,14.14,14,9.5h5.385l2.712,4.639Zm-.885.471L13.146,19.2l-2.689-4.611L13.135,10Zm.857.51h5.357l-2.661,4.561H14ZM8.014,1.9A2.086,2.086,0,0,1,9.6,1h7.609L12.888,8.526h-8.7Zm-6.8,11.772L3.621,9.5h8.674l-2.83,4.841a.487.487,0,0,0,0,.493l2.83,4.847H3.621L1.211,15.513a2.114,2.114,0,0,1,0-1.838M9.6,28.2a2.1,2.1,0,0,1-1.591-.919L4.181,20.656h8.674L17.219,28.2Zm15.19-.919A2.1,2.1,0,0,1,23.2,28.2H18.351l-4.365-7.547h5.67a.487.487,0,0,0,.42-.241L22.9,15.58l4.342,7.458Zm6.8-11.778-3.782,6.556-4.326-7.435L27.843,7.17l3.754,6.5a2.114,2.114,0,0,1,0,1.838" transform="translate(-0.024 -0.009)" fill="#fff"/></g></svg>