<svg width="400" height="60" fill="none" xmlns="http://www.w3.org/2000/svg"><path d="M180.893 9.714a16.272 16.272 0 0 0-9.864 3.368 16.584 16.584 0 0 0-5.869 8.698 16.229 16.229 0 0 0-.696 4.298v7.496a16.47 16.47 0 0 0 .661 4.196 16.453 16.453 0 0 0 5.809 8.772 16.133 16.133 0 0 0 9.885 3.39c3.574 0 7.048-1.191 9.885-3.39a16.453 16.453 0 0 0 5.809-8.772 16.07 16.07 0 0 0 .569-4.196v-7.495c.001-1.454-.195-2.9-.581-4.3a16.466 16.466 0 0 0-5.805-8.688 16.147 16.147 0 0 0-9.815-3.377h.012zm6.151 23.86a6.048 6.048 0 0 1-1.47 3.953 6.216 6.216 0 0 1-2.103 1.644 6.153 6.153 0 0 1-2.59.604 6.496 6.496 0 0 1-2.663-.602 6.565 6.565 0 0 1-2.19-1.646 6.173 6.173 0 0 1-1.607-3.953v-7.16a6.36 6.36 0 0 1 1.96-4.392 6.332 6.332 0 0 1 4.433-1.82 6.24 6.24 0 0 1 4.329 1.82 6.067 6.067 0 0 1 1.385 2c.323.756.491 1.57.494 2.392 0 1.337.022 5.83.022 7.158M332.305 9.714a16.257 16.257 0 0 0-9.859 3.369 16.576 16.576 0 0 0-5.863 8.697 16.216 16.216 0 0 0-.673 4.298v7.496c.029 1.422.248 2.833.651 4.196.93 3.489 2.97 6.57 5.806 8.768a16.131 16.131 0 0 0 9.882 3.39c3.573 0 7.045-1.192 9.881-3.39a16.447 16.447 0 0 0 5.807-8.768c.37-1.368.558-2.779.559-4.196v-7.495c.001-1.454-.195-2.9-.582-4.3a16.459 16.459 0 0 0-5.804-8.688 16.147 16.147 0 0 0-9.815-3.377h.01zm6.153 23.86a6.047 6.047 0 0 1-1.47 3.953 6.228 6.228 0 0 1-2.104 1.644 6.156 6.156 0 0 1-2.591.604 6.464 6.464 0 0 1-2.658-.602 6.543 6.543 0 0 1-2.184-1.646 6.165 6.165 0 0 1-1.594-3.953v-7.16a6.342 6.342 0 0 1 .541-2.393 6.255 6.255 0 0 1 1.407-1.998 6.32 6.32 0 0 1 4.433-1.82 6.244 6.244 0 0 1 4.329 1.82 6.101 6.101 0 0 1 1.88 4.391c0 1.337.023 5.83.023 7.158M159.701 10.625h-9.524V28.5l-9.034-15.938a4.095 4.095 0 0 0-1.348-1.35 4.037 4.037 0 0 0-1.808-.585h-9.501v38.318h5.868a3.585 3.585 0 0 0 2.595-1.151 3.646 3.646 0 0 0 .959-2.697v-17.62l12.328 21.468h5.913c.482 0 .959-.098 1.402-.289a3.57 3.57 0 0 0 1.178-.823 3.623 3.623 0 0 0 .987-2.656l-.015-34.55zm139.701 28.796V10.626h-9.423v38.318h18.08a3.595 3.595 0 0 0 2.593-1.215 3.686 3.686 0 0 0 .917-2.738v-5.57h-12.167zm-27.548-28.795H253.58v38.318h5.869a3.581 3.581 0 0 0 2.594-1.151 3.63 3.63 0 0 0 .754-1.249c.165-.463.235-.956.206-1.448v-7.388h8.853a13.311 13.311 0 0 0 9.359-4.025 13.623 13.623 0 0 0 3.863-9.516c0-3.563-1.388-6.982-3.863-9.517a13.311 13.311 0 0 0-9.359-4.024h-.002zm.024 17.345h-8.875v-7.61h8.828a3.74 3.74 0 0 1 2.667 1.098 3.83 3.83 0 0 1 1.117 2.684 3.828 3.828 0 0 1-1.085 2.697 3.743 3.743 0 0 1-2.654 1.13m-57.681 20.974a3.833 3.833 0 0 0 2.436-.744 3.915 3.915 0 0 0 1.45-2.115c.126-.322 2.791-9.426 5.343-18.209l5.083 17.253 1.163 3.815h4.911a3.73 3.73 0 0 0 2.03-.652c.6-.411 1.07-.989 1.353-1.664a6.24 6.24 0 0 0 .377-.921c.203-.646 10.264-35.081 10.264-35.081h-10.094l-5.012 17.367a7306.005 7306.005 0 0 1-4.294-14.52 3.73 3.73 0 0 0-1.238-2.003 3.655 3.655 0 0 0-2.18-.845h-7.45l-4.99 17.278c-2.084-6.95-4.113-13.645-4.329-14.441a3.76 3.76 0 0 0-1.35-2.068 3.686 3.686 0 0 0-2.33-.767h-7.149l11.313 38.31 4.693.007zm151.387 0a3.832 3.832 0 0 0 2.436-.744 3.91 3.91 0 0 0 1.45-2.115c.126-.322 2.792-9.426 5.344-18.209l5.083 17.253 1.161 3.815h4.91a3.73 3.73 0 0 0 2.03-.652c.6-.411 1.07-.989 1.354-1.664.149-.296.275-.604.376-.921.203-.646 10.266-35.081 10.266-35.081h-10.093l-5.013 17.367a7306.005 7306.005 0 0 1-4.294-14.52 3.73 3.73 0 0 0-1.238-2.003 3.655 3.655 0 0 0-2.18-.845h-7.45l-4.99 17.278c-2.084-6.95-4.113-13.645-4.328-14.441a3.762 3.762 0 0 0-1.351-2.068 3.686 3.686 0 0 0-2.33-.767h-7.147l11.314 38.31 4.69.007zm-243.6-17.285a11.9 11.9 0 0 0-4.762-3.78 45.196 45.196 0 0 0-7.234-2.502 50.085 50.085 0 0 1-5.354-1.762c-1.185-.496-2.165-.823-2.165-1.775a1.561 1.561 0 0 1 .774-1.58 7.516 7.516 0 0 1 3.931-.841 6.88 6.88 0 0 1 3.772.944c.5.284.92.692 1.22 1.187h10.447v-.568a10.148 10.148 0 0 0-2.074-5.473 13.51 13.51 0 0 0-5.344-4.219 18.581 18.581 0 0 0-8.021-1.612 19.355 19.355 0 0 0-7.727 1.406 12.74 12.74 0 0 0-5.435 4.184 10.43 10.43 0 0 0-1.96 6.19 10.566 10.566 0 0 0 1.594 5.91 11.51 11.51 0 0 0 4.5 3.896 34.11 34.11 0 0 0 6.789 2.501c2.631.749 4.614 1.372 5.897 1.868a5.79 5.79 0 0 1 2.108 1.21c.285.287.285.367.285.886.028.368-.047.737-.216 1.064-.17.328-.427.6-.742.787a11.476 11.476 0 0 1-9.353.035 3.736 3.736 0 0 1-1.436-1.59H91.052a1.306 1.306 0 0 0-.013.253v.08a10.166 10.166 0 0 0 2.237 5.901 13.709 13.709 0 0 0 5.811 4.184 21.463 21.463 0 0 0 8.337 1.475 19.753 19.753 0 0 0 11.484-3.065 10.797 10.797 0 0 0 3.562-4.008 10.947 10.947 0 0 0 1.212-5.248 10.062 10.062 0 0 0-1.698-5.936" fill="#fff"/><path d="M65.905 27.095L52.086 2.882A6.259 6.259 0 0 0 49.95.837a6.175 6.175 0 0 0-2.826-.825H36.82a.98.98 0 0 0-.285 0H19.47a6.14 6.14 0 0 0-2.826.827 6.225 6.225 0 0 0-2.13 2.053L.693 27.095a6.386 6.386 0 0 0 0 5.786L14.52 57.106a6.252 6.252 0 0 0 2.127 2.056c.862.503 1.83.79 2.824.836h27.653a6.169 6.169 0 0 0 2.826-.835 6.252 6.252 0 0 0 2.13-2.057l13.826-24.225a6.386 6.386 0 0 0 0-5.786zM50.366 3.889l5.047 8.845-8.841 15.305-5.787-10.025a.996.996 0 0 0-.854-.496H28.445l8.796-15.5h9.882c.644.044 1.269.234 1.83.558.56.323 1.04.771 1.405 1.31l.008.003zm-16.44 25.176l-5.51-9.544h10.95l5.514 9.542-10.953.002zm-1.799.969l-5.447 9.439-5.468-9.484 5.446-9.44 5.47 9.485zm1.743 1.049h10.892l-5.41 9.381H28.416l5.454-9.381zM16.245 3.889a4.26 4.26 0 0 1 1.402-1.3 4.206 4.206 0 0 1 1.823-.55H34.94l-8.786 15.48H8.465l7.78-13.63zM2.418 28.103l4.895-8.582H24.95l-5.755 9.958a1.01 1.01 0 0 0 0 1.014l5.755 9.97H7.313l-4.9-8.574a4.39 4.39 0 0 1 0-3.78l.005-.006zM19.47 57.984a4.233 4.233 0 0 1-1.833-.568 4.29 4.29 0 0 1-1.402-1.322L8.45 42.467h17.637l8.874 15.517H19.47zm30.886-1.89a4.29 4.29 0 0 1-1.401 1.322 4.234 4.234 0 0 1-1.832.568h-9.86l-8.875-15.523h11.529a.981.981 0 0 0 .854-.495l5.742-9.939 8.829 15.34-4.986 8.727zM64.182 31.87l-7.69 13.484-8.796-15.292 8.868-15.332 7.633 13.37a4.39 4.39 0 0 1 0 3.78" fill="url(#paint0_linear_1073_7205)"/><defs><linearGradient id="paint0_linear_1073_7205" x1="33.298" y1=".002" x2="75.977" y2="60.507" gradientUnits="userSpaceOnUse"><stop stop-color="#fff"/><stop offset="1" stop-color="#fff" stop-opacity="0"/></linearGradient></defs></svg>